<svg width="20" height="20" viewBox="0 0 20 20" fill="none" xmlns="http://www.w3.org/2000/svg">
<path d="M10.5145 14.5142L17.787 7.24148C18.071 6.95751 18.071 6.497 17.7869 6.21298C17.5029 5.929 17.0425 5.929 16.7584 6.21302L10.0001 12.9715L3.2415 6.21298C2.95748 5.929 2.49702 5.929 2.21299 6.21302C2.07098 6.35499 2 6.54112 2 6.72725C2 6.91339 2.07098 7.09952 2.21304 7.24153L9.48595 14.5142C9.55347 14.5818 9.63364 14.6353 9.72188 14.6719C9.81012 14.7085 9.9047 14.7273 10.0002 14.7273C10.0957 14.7273 10.1903 14.7085 10.2785 14.6719C10.3668 14.6353 10.4469 14.5818 10.5145 14.5142Z" fill="#131313"/>
</svg>
