<svg width="20" height="20" viewBox="0 0 20 20" fill="none" xmlns="http://www.w3.org/2000/svg">
<path d="M18.3333 9.16666H3.67832L8.08915 4.75583C8.16874 4.67896 8.23223 4.587 8.2759 4.48533C8.31958 4.38366 8.34257 4.27431 8.34353 4.16366C8.34449 4.05301 8.3234 3.94328 8.2815 3.84087C8.2396 3.73845 8.17772 3.64541 8.09948 3.56717C8.02124 3.48892 7.92819 3.42705 7.82578 3.38514C7.72337 3.34324 7.61363 3.32216 7.50298 3.32312C7.39233 3.32408 7.28298 3.34707 7.18131 3.39075C7.07964 3.43442 6.98769 3.4979 6.91082 3.5775L1.07748 9.41083C0.921259 9.5671 0.833496 9.77903 0.833496 10C0.833496 10.221 0.921259 10.4329 1.07748 10.5892L6.91082 16.4225C7.06799 16.5743 7.27849 16.6583 7.49699 16.6564C7.71548 16.6545 7.92449 16.5669 8.079 16.4123C8.23351 16.2578 8.32115 16.0488 8.32305 15.8303C8.32495 15.6118 8.24095 15.4013 8.08915 15.2442L3.67832 10.8333H18.3333C18.5543 10.8333 18.7663 10.7455 18.9226 10.5893C19.0789 10.433 19.1667 10.221 19.1667 10C19.1667 9.77898 19.0789 9.56702 18.9226 9.41074C18.7663 9.25446 18.5543 9.16666 18.3333 9.16666Z" fill="#131313"/>
</svg>
