<svg width="20" height="20" viewBox="0 0 20 20" fill="none" xmlns="http://www.w3.org/2000/svg">
<g clip-path="url(#clip0_279_144)">
<path d="M19.375 11.25C19.3743 9.86684 18.8641 8.5324 17.9417 7.50167C17.0194 6.47094 15.7496 5.81618 14.375 5.6625V2.1875C14.375 1.7731 14.2104 1.37567 13.9174 1.08265C13.6243 0.78962 13.2269 0.625 12.8125 0.625H5C4.90972 0.624994 4.82052 0.644545 4.73852 0.682307C4.65652 0.720069 4.58368 0.775147 4.525 0.84375L0.775 5.21875C0.678184 5.33196 0.624989 5.47603 0.625 5.625V17.8125C0.625 18.2269 0.78962 18.6243 1.08265 18.9174C1.37567 19.2104 1.7731 19.375 2.1875 19.375H12.8125C13.2269 19.375 13.6243 19.2104 13.9174 18.9174C14.2104 18.6243 14.375 18.2269 14.375 17.8125V16.8375C15.7496 16.6838 17.0194 16.0291 17.9417 14.9983C18.8641 13.9676 19.3743 12.6332 19.375 11.25ZM4.375 2.9375V4.6875C4.375 4.77038 4.34208 4.84987 4.28347 4.90847C4.22487 4.96708 4.14538 5 4.0625 5H2.60625L4.375 2.9375ZM12.8125 18.125H2.1875C2.10462 18.125 2.02513 18.0921 1.96653 18.0335C1.90792 17.9749 1.875 17.8954 1.875 17.8125V6.25H4.0625C4.4769 6.25 4.87433 6.08538 5.16735 5.79235C5.46038 5.49933 5.625 5.1019 5.625 4.6875V1.875H12.8125C12.8954 1.875 12.9749 1.90792 13.0335 1.96653C13.0921 2.02513 13.125 2.10462 13.125 2.1875V5.6625C11.7546 5.82153 10.4905 6.47861 9.57296 7.5088C8.65541 8.53899 8.14844 9.87044 8.14844 11.25C8.14844 12.6296 8.65541 13.961 9.57296 14.9912C10.4905 16.0214 11.7546 16.6785 13.125 16.8375V17.8125C13.125 17.8954 13.0921 17.9749 13.0335 18.0335C12.9749 18.0921 12.8954 18.125 12.8125 18.125ZM13.75 15.625C12.8847 15.625 12.0388 15.3684 11.3194 14.8877C10.5999 14.4069 10.0392 13.7237 9.70803 12.9242C9.37689 12.1248 9.29025 11.2451 9.45906 10.3965C9.62788 9.54781 10.0446 8.76826 10.6564 8.15641C11.2683 7.54455 12.0478 7.12787 12.8965 6.95906C13.7451 6.79025 14.6248 6.87689 15.4242 7.20803C16.2237 7.53916 16.9069 8.09992 17.3877 8.81938C17.8684 9.53885 18.125 10.3847 18.125 11.25C18.125 12.4103 17.6641 13.5231 16.8436 14.3436C16.0231 15.1641 14.9103 15.625 13.75 15.625Z" fill="#131313"/>
<path d="M14.375 10.7187C14.375 10.553 14.3092 10.394 14.1919 10.2768C14.0747 10.1596 13.9158 10.0937 13.75 10.0937H12.5V11.3437H13.125V13.2187H12.5V14.4687H15V13.2187H14.375V10.7187ZM12.8125 8.03125H14.0625V9.34375H12.8125V8.03125Z" fill="#131313"/>
</g>
<defs>
<clipPath id="clip0_279_144">
<rect width="20" height="20" fill="white"/>
</clipPath>
</defs>
</svg>
