<svg width="24" height="24" viewBox="0 0 24 24" fill="none" xmlns="http://www.w3.org/2000/svg">
<g clip-path="url(#clip0_279_121)">
<path d="M8.98751 10.2906C9.09966 10.2906 9.19064 10.3816 9.19064 10.4938C9.19064 10.6059 9.09966 10.6969 8.98751 10.6969C8.8753 10.6969 8.78439 10.606 8.78439 10.4938C8.78439 10.3816 8.8753 10.2906 8.98751 10.2906Z" fill="#8B8B8B" stroke="#8B8B8B"/>
<path d="M4.0918 0.500031H13.8828C15.8699 0.500031 17.4744 2.10783 17.4746 4.09183V5.77249H19.9082C21.8955 5.77272 23.5 7.38022 23.5 9.36429V23.2969C23.5 23.4091 23.4085 23.5 23.2969 23.5L23.2275 23.4883C23.2056 23.4804 23.1852 23.4683 23.167 23.4532L18.8438 19.8506L18.7051 19.7344H10.1172C8.12992 19.7344 6.52558 18.1267 6.52539 16.1426V13.709H5.2959L5.15625 13.8252L0.833008 17.4278C0.703341 17.5358 0.500359 17.4472 0.5 17.2725V4.09183C0.500206 2.10473 2.10788 0.500262 4.0918 0.500031ZM17.4746 9.53714H19.5312C19.6433 9.53723 19.7342 9.62829 19.7344 9.74026C19.7344 9.85243 19.6434 9.9433 19.5312 9.94339H17.5L17.4639 10.4043C17.4249 10.8974 17.2833 11.377 17.0488 11.8125L16.6514 12.5498H19.5312C19.6432 12.5499 19.7343 12.641 19.7344 12.753C19.7344 12.8651 19.6434 12.956 19.5312 12.9561H16.0869L15.957 13.0489C15.3706 13.4651 14.655 13.709 13.8828 13.709H6.93066V16.1426C6.93077 16.9923 7.26334 17.7937 7.86426 18.3946C8.46527 18.9957 9.26715 19.3282 10.1172 19.3282H18.7783C18.8257 19.3282 18.8718 19.3447 18.9082 19.375L22.2734 22.1797L23.0938 22.8633V9.36429C23.0938 8.51433 22.7619 7.71229 22.1611 7.11136C21.5601 6.51028 20.7582 6.17788 19.9082 6.17776H17.4746V9.53714ZM4.0918 0.906281C2.32984 0.906487 0.906482 2.33276 0.90625 4.09183V16.8379L1.72656 16.1543L5.0918 13.3506C5.12828 13.3202 5.1742 13.3028 5.22168 13.3028H13.8828C15.6399 13.3028 17.0684 11.8744 17.0684 10.1172V4.09183C17.0682 2.32972 15.6419 0.906281 13.8828 0.906281H4.0918Z" fill="#8B8B8B" stroke="#8B8B8B" stroke-width="0.999998"/>
<path d="M7.80777 5.59776C7.80777 5.28281 7.93049 4.98693 8.15315 4.76409C8.3758 4.54143 8.67186 4.41876 8.98752 4.41876C9.63791 4.41876 10.1673 4.94812 10.1673 5.59851C10.1673 6.24909 9.63791 6.77826 8.98752 6.77826C8.59916 6.77826 8.28439 7.09298 8.28439 7.48139V8.23448C8.28439 8.62265 8.59916 8.93761 8.98752 8.93761C9.37574 8.93761 9.69064 8.62265 9.69064 8.23448V8.08729C10.7759 7.78022 11.5733 6.78079 11.5733 5.59851C11.5733 4.17248 10.4134 3.01251 8.98677 3.01251C8.2963 3.01251 7.64704 3.28148 7.15865 3.76964C6.67054 4.25798 6.40152 4.90729 6.40152 5.59757V5.59832C6.40152 5.98668 6.71629 6.30107 7.10464 6.30107C7.493 6.30107 7.80777 5.98612 7.80777 5.59776ZM19.5313 15.0625H10.4938C10.1054 15.0625 9.79068 15.3774 9.79068 15.7656C9.79068 16.154 10.1054 16.4687 10.4938 16.4687H19.5313C19.9195 16.4687 20.2344 16.154 20.2344 15.7656C20.2344 15.3774 19.9195 15.0625 19.5313 15.0625Z" fill="#8B8B8B"/>
</g>
<defs>
<clipPath id="clip0_279_121">
<rect width="24" height="24" fill="white"/>
</clipPath>
</defs>
</svg>
