<svg width="20" height="20" viewBox="0 0 20 20" fill="none" xmlns="http://www.w3.org/2000/svg">
<path d="M17.8496 12.769C16.612 11.0082 15.9845 8.9859 15.9845 6.75832C15.9845 3.4584 13.2999 0.77375 9.99997 0.77375C6.70009 0.77375 4.0154 3.4584 4.0154 6.75832C4.0154 8.9859 3.38794 11.0082 2.1504 12.769C1.82868 13.2267 1.74911 13.7711 1.9263 14.3017C2.10345 14.8323 2.49407 15.2196 3.02626 15.3923C4.08603 15.7361 5.23614 15.9962 6.44075 16.1688C6.70318 17.8973 8.19927 19.2263 9.99997 19.2263C11.8007 19.2263 13.2968 17.8973 13.5592 16.1688C14.7638 15.9962 15.9139 15.7361 16.9737 15.3923H16.9737C17.5058 15.2197 17.8965 14.8324 18.0737 14.3018C18.2509 13.7711 18.1713 13.2267 17.8496 12.769ZM9.99997 17.9762C8.9456 17.9762 8.0513 17.2783 7.75458 16.3202C8.50126 16.3855 9.25044 16.4181 9.99997 16.418C10.7586 16.418 11.5093 16.3847 12.2454 16.3202C11.9486 17.2783 11.0543 17.9762 9.99997 17.9762ZM16.8881 13.9058C16.8376 14.0568 16.7395 14.1541 16.588 14.2032C14.6422 14.8344 12.3641 15.168 9.99997 15.168C7.63583 15.168 5.35767 14.8344 3.41196 14.2032C3.26052 14.1541 3.16236 14.0568 3.11196 13.9058C3.06154 13.7547 3.0815 13.618 3.17306 13.4877C4.56142 11.5123 5.26536 9.24816 5.26536 6.75828C5.26536 4.14762 7.38927 2.02371 9.99993 2.02371C12.6106 2.02371 14.7345 4.14766 14.7345 6.75828C14.7345 9.24816 15.4384 11.5123 16.8268 13.4878C16.9185 13.6181 16.9384 13.7548 16.8881 13.9058Z" fill="#131313"/>
</svg>
