<svg width="24" height="24" viewBox="0 0 24 24" fill="none" xmlns="http://www.w3.org/2000/svg">
<path fill-rule="evenodd" clip-rule="evenodd" d="M4.32001 22.5599H17.76C19.3479 22.5599 20.64 21.2678 20.64 19.6799V7.67994C20.6401 7.55386 20.6154 7.42899 20.5671 7.31252C20.5188 7.19604 20.448 7.09025 20.3587 7.00122L15.0787 1.72122C14.9897 1.6319 14.884 1.56107 14.7675 1.51279C14.651 1.46452 14.5261 1.43976 14.4 1.43994H6.24001C4.65217 1.43994 3.36001 2.7321 3.36001 4.31994V8.15994C3.36001 8.41455 3.46116 8.65873 3.64119 8.83876C3.82123 9.0188 4.06541 9.11994 4.32001 9.11994C4.57462 9.11994 4.8188 9.0188 4.99884 8.83876C5.17887 8.65873 5.28001 8.41455 5.28001 8.15994V4.31994C5.28001 3.79098 5.71105 3.35994 6.24001 3.35994H12.96V8.15994C12.96 8.41455 13.0612 8.65873 13.2412 8.83876C13.4212 9.0188 13.6654 9.11994 13.92 9.11994H18.72V19.6799C18.72 19.9346 18.6189 20.1787 18.4388 20.3588C18.2588 20.5388 18.0146 20.6399 17.76 20.6399H4.32001C4.06541 20.6399 3.82123 20.7411 3.64119 20.9211C3.46116 21.1012 3.36001 21.3453 3.36001 21.5999C3.36001 21.8546 3.46116 22.0987 3.64119 22.2788C3.82123 22.4588 4.06541 22.5599 4.32001 22.5599ZM17.8426 7.19994L14.88 4.23738V7.19994H17.8426Z" fill="#8B8B8B"/>
<path d="M9.68257 15.8399H2.40001C2.14541 15.8399 1.90123 15.7388 1.72119 15.5588C1.54116 15.3787 1.44001 15.1346 1.44001 14.8799C1.44001 14.6253 1.54116 14.3812 1.72119 14.2011C1.90123 14.0211 2.14541 13.9199 2.40001 13.9199H9.68257L8.44129 12.6787C8.26129 12.4987 8.16016 12.2545 8.16016 11.9999C8.16016 11.7454 8.26129 11.5012 8.44129 11.3212C8.6213 11.1412 8.86544 11.0401 9.12001 11.0401C9.37458 11.0401 9.61873 11.1412 9.79873 11.3212L12.6634 14.1859C12.7571 14.2756 12.8316 14.3833 12.8825 14.5026C12.9335 14.6219 12.9597 14.7502 12.9597 14.8799C12.9597 15.0096 12.9335 15.138 12.8825 15.2573C12.8316 15.3766 12.7571 15.4843 12.6634 15.574L9.79873 18.4387C9.70979 18.5281 9.60403 18.5991 9.48755 18.6476C9.37107 18.696 9.24617 18.7209 9.12001 18.7209C8.99386 18.7209 8.86896 18.696 8.75248 18.6476C8.636 18.5991 8.53024 18.5281 8.44129 18.4387C8.35207 18.3496 8.28128 18.2438 8.23298 18.1273C8.18468 18.0109 8.15982 17.886 8.15982 17.7599C8.15982 17.6339 8.18468 17.509 8.23298 17.3926C8.28128 17.2761 8.35207 17.1703 8.44129 17.0812L9.68257 15.8399Z" fill="#8B8B8B"/>
</svg>
