<svg width="20" height="20" viewBox="0 0 20 20" fill="none" xmlns="http://www.w3.org/2000/svg">
<path fill-rule="evenodd" clip-rule="evenodd" d="M13.2667 3.15833C13.1567 3.12917 13.0317 3.125 12.5625 3.125H5.16667C4.69 3.125 4.36917 3.125 4.1225 3.14583C3.88333 3.165 3.76917 3.2 3.69333 3.23833C3.49732 3.3384 3.33804 3.49797 3.23833 3.69417C3.2 3.76917 3.165 3.88333 3.14583 4.12333C3.12583 4.36917 3.125 4.69 3.125 5.16667V14.8333C3.125 15.31 3.125 15.6308 3.14583 15.8767C3.165 16.1167 3.2 16.2308 3.23833 16.3067C3.33833 16.5025 3.4975 16.6617 3.69333 16.7617C3.76833 16.8 3.88333 16.835 4.1225 16.8542C4.36917 16.8742 4.68917 16.875 5.16667 16.875H5.20833V14.3083C5.20833 13.8625 5.20833 13.4917 5.23333 13.1875C5.25833 12.8708 5.315 12.5742 5.45833 12.2925C5.67777 11.8618 6.02778 11.5115 6.45833 11.2917C6.74 11.1483 7.03667 11.0917 7.35333 11.0667C7.6575 11.0417 8.02833 11.0417 8.47417 11.0417H11.5242C11.97 11.0417 12.3408 11.0417 12.645 11.0667C12.9617 11.0917 13.2583 11.1483 13.5392 11.2917C13.97 11.5108 14.3217 11.8617 14.5408 12.2925C14.6842 12.5742 14.7408 12.8717 14.7658 13.1875C14.7908 13.4908 14.7908 13.8617 14.7908 14.3058V16.875H14.8325C15.31 16.875 15.63 16.875 15.8758 16.8542C16.115 16.835 16.23 16.8 16.305 16.7617C16.5017 16.6617 16.6608 16.5017 16.7608 16.3067C16.7992 16.2308 16.8342 16.1167 16.8533 15.8775C16.8733 15.6308 16.8742 15.3108 16.8742 14.8333V7.69C16.8742 7.28417 16.8708 7.17583 16.8492 7.07917C16.8272 6.97965 16.7907 6.88391 16.7408 6.795C16.6917 6.70917 16.6217 6.62583 16.35 6.32417L14.0792 3.80083C13.7658 3.4525 13.6775 3.36167 13.5833 3.29917C13.4864 3.2346 13.3794 3.18755 13.2667 3.15833ZM14.17 18.125H14.8583C15.3042 18.125 15.675 18.125 15.9792 18.1C16.2958 18.075 16.5925 18.0183 16.8733 17.875C17.3046 17.6552 17.6552 17.3046 17.875 16.8733C18.0183 16.5925 18.075 16.295 18.1 15.9783C18.125 15.6758 18.125 15.305 18.125 14.8617V7.63667C18.125 7.31167 18.125 7.055 18.07 6.80667C18.021 6.58771 17.9402 6.37713 17.83 6.18167C17.705 5.96 17.5342 5.77 17.3175 5.52917L17.28 5.4875L15.0092 2.965L14.9675 2.91833C14.7167 2.63917 14.5192 2.42 14.2758 2.25833C14.0622 2.11607 13.8261 2.01071 13.5775 1.94667C13.2958 1.87417 13.0017 1.875 12.6275 1.875H5.14167C4.69667 1.875 4.325 1.875 4.02083 1.9C3.70417 1.925 3.4075 1.98167 3.12583 2.125C2.69485 2.34487 2.34451 2.6955 2.125 3.12667C1.98167 3.4075 1.925 3.70417 1.9 4.02083C1.875 4.325 1.875 4.69583 1.875 5.14167V14.8583C1.875 15.3042 1.875 15.675 1.9 15.9792C1.925 16.2958 1.98167 16.5925 2.125 16.8733C2.34429 17.3044 2.69432 17.655 3.125 17.875C3.40667 18.0183 3.70333 18.075 4.02 18.1C4.32417 18.125 4.695 18.125 5.14083 18.125H14.1667H14.17ZM13.5417 16.875V14.3333C13.5417 13.8558 13.5417 13.5358 13.5208 13.2892C13.5017 13.05 13.4667 12.9358 13.4283 12.8608C13.3284 12.6645 13.1688 12.505 12.9725 12.405C12.8975 12.3667 12.7833 12.3317 12.5442 12.3125C12.2975 12.2925 11.9775 12.2917 11.5 12.2917H8.5C8.02333 12.2917 7.7025 12.2917 7.45583 12.3125C7.21667 12.3317 7.1025 12.3667 7.02667 12.405C6.83078 12.5048 6.67151 12.6641 6.57167 12.86C6.53333 12.9358 6.49833 13.05 6.47917 13.2892C6.45917 13.5358 6.45833 13.8558 6.45833 14.3333V16.875H13.5417ZM6.875 5.83333C6.875 5.66757 6.94085 5.5086 7.05806 5.39139C7.17527 5.27418 7.33424 5.20833 7.5 5.20833H12.5C12.6658 5.20833 12.8247 5.27418 12.9419 5.39139C13.0592 5.5086 13.125 5.66757 13.125 5.83333C13.125 5.99909 13.0592 6.15807 12.9419 6.27528C12.8247 6.39249 12.6658 6.45833 12.5 6.45833H7.5C7.33424 6.45833 7.17527 6.39249 7.05806 6.27528C6.94085 6.15807 6.875 5.99909 6.875 5.83333Z" fill="white"/>
</svg>
