<svg width="24" height="24" viewBox="0 0 24 24" fill="none" xmlns="http://www.w3.org/2000/svg">
<path d="M14.1915 10.5023C14.0358 10.2243 13.8155 9.98789 13.5492 9.81297C13.2829 9.63805 12.9784 9.52977 12.6615 9.49726V7.84276C12.9389 7.91722 13.1988 8.04567 13.4265 8.22076C13.5191 8.28451 13.6322 8.31153 13.7436 8.29656C13.8551 8.28159 13.957 8.2257 14.0295 8.13976C14.086 8.08148 14.1286 8.01122 14.1542 7.93419C14.1798 7.85717 14.1877 7.77536 14.1773 7.69486C14.167 7.61436 14.1386 7.53724 14.0943 7.46922C14.05 7.40121 13.9909 7.34406 13.9215 7.30201C13.5559 7.01182 13.1222 6.81999 12.6615 6.74476V6.41176C12.6651 6.3402 12.654 6.26866 12.6288 6.20158C12.6036 6.13449 12.565 6.07329 12.5152 6.02175C12.4654 5.97022 12.4056 5.92945 12.3394 5.90197C12.2733 5.87449 12.2021 5.86089 12.1305 5.86201C12.0579 5.86047 11.9858 5.87365 11.9184 5.90074C11.8511 5.92783 11.7899 5.96828 11.7386 6.01965C11.6873 6.07102 11.6469 6.13224 11.6199 6.19963C11.5929 6.26702 11.5799 6.33918 11.5815 6.41176V6.72151C11.1056 6.7318 10.652 6.92518 10.315 7.26143C9.9781 7.59767 9.78378 8.05088 9.7725 8.52676C9.78343 9.00254 9.97771 9.45572 10.3148 9.79167C10.6519 10.1276 11.1057 10.3204 11.5815 10.3298V12.0923C11.1794 12.0174 10.8057 11.8332 10.5015 11.5598C10.4025 11.4818 10.2779 11.4437 10.1522 11.4528C10.0265 11.462 9.9087 11.5178 9.822 11.6093C9.76882 11.6689 9.7288 11.7391 9.70456 11.8152C9.68032 11.8913 9.67239 11.9717 9.68131 12.0511C9.69023 12.1305 9.71578 12.2071 9.75631 12.276C9.79683 12.3449 9.85142 12.4044 9.9165 12.4508C10.377 12.8622 10.9647 13.1031 11.5815 13.1333V13.647C11.5789 13.7183 11.5907 13.7894 11.6162 13.8561C11.6417 13.9227 11.6804 13.9836 11.73 14.0349C11.7796 14.0862 11.839 14.127 11.9047 14.1548C11.9705 14.1827 12.0411 14.1969 12.1125 14.1968C12.1851 14.1983 12.2572 14.1851 12.3246 14.158C12.3919 14.1309 12.4531 14.0905 12.5044 14.0391C12.5557 13.9877 12.5961 13.9265 12.6231 13.8591C12.6501 13.7917 12.6631 13.7196 12.6615 13.647V13.0875C13.1082 13.0327 13.5209 12.821 13.8259 12.49C14.1309 12.159 14.3083 11.7305 14.3265 11.2808C14.3337 11.0149 14.2879 10.7502 14.1915 10.5023ZM11.5815 9.24601C11.3615 9.19027 11.1588 9.08044 10.992 8.92651C10.8942 8.80918 10.8388 8.66234 10.8347 8.50966C10.8307 8.35699 10.8781 8.20739 10.9695 8.08501C11.1285 7.90795 11.3456 7.79357 11.5815 7.76251V9.24601ZM13.0755 11.7443C12.9571 11.859 12.8161 11.9479 12.6615 12.0053V10.6013C12.8214 10.664 12.9657 10.7608 13.0845 10.8848C13.1905 11.0033 13.2483 11.1572 13.2466 11.3163C13.245 11.4753 13.1839 11.6279 13.0755 11.7443ZM15.75 16.5H8.25C8.05109 16.5 7.86032 16.421 7.71967 16.2803C7.57902 16.1397 7.5 15.9489 7.5 15.75C7.5 15.5511 7.57902 15.3603 7.71967 15.2197C7.86032 15.079 8.05109 15 8.25 15H15.75C15.9489 15 16.1397 15.079 16.2803 15.2197C16.421 15.3603 16.5 15.5511 16.5 15.75C16.5 15.9489 16.421 16.1397 16.2803 16.2803C16.1397 16.421 15.9489 16.5 15.75 16.5ZM15.75 18.75H8.25C8.05109 18.75 7.86032 18.671 7.71967 18.5303C7.57902 18.3897 7.5 18.1989 7.5 18C7.5 17.8011 7.57902 17.6103 7.71967 17.4697C7.86032 17.329 8.05109 17.25 8.25 17.25H15.75C15.9489 17.25 16.1397 17.329 16.2803 17.4697C16.421 17.6103 16.5 17.8011 16.5 18C16.5 18.1989 16.421 18.3897 16.2803 18.5303C16.1397 18.671 15.9489 18.75 15.75 18.75ZM18.8407 5.03026L15.9697 2.15926C15.7613 1.94956 15.5133 1.78331 15.2401 1.67014C14.9669 1.55698 14.6739 1.49915 14.3783 1.50001H6.75C6.15345 1.50061 5.5815 1.73785 5.15967 2.15968C4.73784 2.5815 4.5006 3.15346 4.5 3.75001V20.25C4.5006 20.8466 4.73784 21.4185 5.15967 21.8403C5.5815 22.2622 6.15345 22.4994 6.75 22.5H17.25C17.8466 22.4994 18.4185 22.2622 18.8403 21.8403C19.2622 21.4185 19.4994 20.8466 19.5 20.25V6.62176C19.5009 6.32606 19.443 6.03313 19.3299 5.75994C19.2167 5.48675 19.0505 5.23874 18.8407 5.03026ZM17.6895 6.00001H15.75C15.5511 5.99981 15.3605 5.92073 15.2199 5.78012C15.0793 5.63951 15.0002 5.44886 15 5.25001V3.31051L17.6895 6.00001ZM17.25 21H6.75C6.55115 20.9998 6.3605 20.9207 6.21989 20.7801C6.07928 20.6395 6.0002 20.4489 6 20.25V3.75001C6.0002 3.55116 6.07928 3.36051 6.21989 3.2199C6.3605 3.07929 6.55115 3.00021 6.75 3.00001H13.5V5.25001C13.5006 5.84656 13.7378 6.41851 14.1597 6.84034C14.5815 7.26217 15.1534 7.49941 15.75 7.50001H18V20.25C17.9998 20.4489 17.9207 20.6395 17.7801 20.7801C17.6395 20.9207 17.4489 20.9998 17.25 21Z" fill="#8B8B8B"/>
</svg>
