<svg width="20" height="20" viewBox="0 0 20 20" fill="none" xmlns="http://www.w3.org/2000/svg">
<path fill-rule="evenodd" clip-rule="evenodd" d="M3.125 8.125C3.125 4.32812 6.20312 1.25 10 1.25C13.7969 1.25 16.875 4.32812 16.875 8.125V8.82875C17.9531 9.10625 18.75 10.085 18.75 11.25V13.75C18.7501 14.1142 18.6706 14.4739 18.5171 14.8042C18.3636 15.1344 18.1398 15.4271 17.8614 15.6618C17.583 15.8965 17.2567 16.0676 16.9052 16.163C16.5538 16.2585 16.1858 16.276 15.8269 16.2144C15.4025 17.016 14.7582 17.6799 13.9696 18.1279C13.181 18.576 12.2809 18.7896 11.375 18.7437C11.3338 18.7481 11.2919 18.75 11.25 18.75H10C9.66848 18.75 9.35054 18.6183 9.11612 18.3839C8.8817 18.1495 8.75 17.8315 8.75 17.5C8.75 17.1685 8.8817 16.8505 9.11612 16.6161C9.35054 16.3817 9.66848 16.25 10 16.25H11.25C11.5622 16.25 11.863 16.3668 12.0934 16.5774C12.3238 16.788 12.4671 17.0772 12.495 17.3881C12.9553 17.2695 13.3866 17.0587 13.763 16.7684C14.1393 16.4781 14.4528 16.1144 14.6844 15.6994C14.3924 15.4653 14.1568 15.1686 13.9951 14.8311C13.8334 14.4937 13.7496 14.1242 13.75 13.75V11.25C13.7501 10.6957 13.9343 10.1571 14.2736 9.71889C14.613 9.28064 15.0884 8.96753 15.625 8.82875V8.125C15.625 6.63316 15.0324 5.20242 13.9775 4.14752C12.9226 3.09263 11.4918 2.5 10 2.5C8.50816 2.5 7.07742 3.09263 6.02252 4.14752C4.96763 5.20242 4.375 6.63316 4.375 8.125V8.82875C5.45312 9.10625 6.25 10.085 6.25 11.25V13.75C6.25 14.413 5.98661 15.0489 5.51777 15.5178C5.04893 15.9866 4.41304 16.25 3.75 16.25C3.08696 16.25 2.45107 15.9866 1.98223 15.5178C1.51339 15.0489 1.25 14.413 1.25 13.75V11.25C1.25007 10.6957 1.43427 10.1571 1.77364 9.71889C2.11302 9.28064 2.58836 8.96753 3.125 8.82875V8.125ZM3.75 10C3.41848 10 3.10054 10.1317 2.86612 10.3661C2.6317 10.6005 2.5 10.9185 2.5 11.25V13.75C2.5 14.0815 2.6317 14.3995 2.86612 14.6339C3.10054 14.8683 3.41848 15 3.75 15C4.08152 15 4.39946 14.8683 4.63388 14.6339C4.8683 14.3995 5 14.0815 5 13.75V11.25C5 10.9185 4.8683 10.6005 4.63388 10.3661C4.39946 10.1317 4.08152 10 3.75 10ZM15 11.25C15 10.9185 15.1317 10.6005 15.3661 10.3661C15.6005 10.1317 15.9185 10 16.25 10C16.5815 10 16.8995 10.1317 17.1339 10.3661C17.3683 10.6005 17.5 10.9185 17.5 11.25V13.75C17.5 14.0815 17.3683 14.3995 17.1339 14.6339C16.8995 14.8683 16.5815 15 16.25 15C15.9185 15 15.6005 14.8683 15.3661 14.6339C15.1317 14.3995 15 14.0815 15 13.75V11.25Z" fill="#131313"/>
</svg>
