<svg width="24" height="24" viewBox="0 0 24 24" fill="none" xmlns="http://www.w3.org/2000/svg">
<path d="M20.25 5.25H17.25V4.5C17.25 3.90326 17.0129 3.33097 16.591 2.90901C16.169 2.48705 15.5967 2.25 15 2.25H9C8.40326 2.25 7.83097 2.48705 7.40901 2.90901C6.98705 3.33097 6.75 3.90326 6.75 4.5V5.25H3.75C3.15326 5.25 2.58097 5.48705 2.15901 5.90901C1.73705 6.33097 1.5 6.90326 1.5 7.5V19.5C1.5 20.0967 1.73705 20.669 2.15901 21.091C2.58097 21.5129 3.15326 21.75 3.75 21.75H20.25C20.8467 21.75 21.419 21.5129 21.841 21.091C22.2629 20.669 22.5 20.0967 22.5 19.5V7.5C22.5 6.90326 22.2629 6.33097 21.841 5.90901C21.419 5.48705 20.8467 5.25 20.25 5.25ZM8.25 4.5C8.25 4.30109 8.32902 4.11032 8.46967 3.96967C8.61032 3.82902 8.80109 3.75 9 3.75H15C15.1989 3.75 15.3897 3.82902 15.5303 3.96967C15.671 4.11032 15.75 4.30109 15.75 4.5V5.25H8.25V4.5ZM3 7.5C3 7.30109 3.07902 7.11032 3.21967 6.96967C3.36032 6.82902 3.55109 6.75 3.75 6.75H20.25C20.4489 6.75 20.6397 6.82902 20.7803 6.96967C20.921 7.11032 21 7.30109 21 7.5V9.75C21 10.3467 20.7629 10.919 20.341 11.341C19.919 11.7629 19.3467 12 18.75 12H14.25C14.25 11.6022 14.092 11.2206 13.8107 10.9393C13.5294 10.658 13.1478 10.5 12.75 10.5H11.25C10.8522 10.5 10.4706 10.658 10.1893 10.9393C9.90804 11.2206 9.75 11.6022 9.75 12H5.25C4.65326 12 4.08097 11.7629 3.65901 11.341C3.23705 10.919 3 10.3467 3 9.75V7.5ZM12.75 13.5H11.25V12H12.75V13.5ZM20.25 20.25H3.75C3.55109 20.25 3.36032 20.171 3.21967 20.0303C3.07902 19.8897 3 19.6989 3 19.5V12.7305C3.64529 13.2269 4.4359 13.4972 5.25 13.5H9.75C9.75 13.8978 9.90804 14.2794 10.1893 14.5607C10.4706 14.842 10.8522 15 11.25 15H12.75C13.1478 15 13.5294 14.842 13.8107 14.5607C14.092 14.2794 14.25 13.8978 14.25 13.5H18.75C19.5641 13.4972 20.3547 13.2269 21 12.7305V19.5C21 19.6989 20.921 19.8897 20.7803 20.0303C20.6397 20.171 20.4489 20.25 20.25 20.25Z" fill="#8B8B8B"/>
</svg>
